<svg xmlns="http://www.w3.org/2000/svg" width="36.92975" height="35.48124" viewBox="0 0 36.92975 35.48124" creator="Katerina Limpitsouni"><path d="M18.48495,27.98802c-3.99229,1.67671-7.10339,5.38475-11.50776,6.03479l.92259,.92259c.36799-2.4042,.73597-4.80841,1.10396-7.21261,.17076-1.11565,.40244-2.24251,.51518-3.36589,.07221-.71955-.15735-1.05104-.54946-1.68849-2.04651-3.32698-4.73382-6.17444-7.86842-8.49467l-.37854,1.3976c2.18136-.0461,4.35436-.28827,6.48568-.76031,1.03157-.22847,2.0518-.50936,3.05482-.8415,.78546-.2601,1.84682-.48246,2.48879-1.01908,.56414-.47157,.72931-1.29626,.9944-1.94978l1.30082-3.20695L17.83447,.93166l-1.37081,.17916c2.44629,3.31272,4.43664,6.91554,5.90237,10.76534,.24082,.63251,1.27474,.78873,1.44642,0l.06286-.28881-.72321,.55062,13.02955,1.50949-.53033-1.28033c-1.71654,1.80345-3.43307,3.60691-5.14961,5.41036-.80105,.84161-1.6021,1.68322-2.40315,2.52484-.42299,.44441-1.06765,.91613-1.25005,1.52518-.2549,.85112-.06333,2.15516-.03189,3.03054,.03953,1.10068,.12832,2.19921,.26291,3.2923,.27801,2.25794,.75247,4.47424,1.40856,6.65228l.92259-.92259c-1.96753-.6587-3.86229-1.48808-5.66627-2.51482-1.46236-.83231-3.47557-1.85673-4.52975-3.18432-.60005-.75568-1.65513,.31201-1.06066,1.06066,.49369,.62173,1.317,1.11026,1.96059,1.57405,.92372,.66565,1.88322,1.28163,2.87274,1.84482,1.91406,1.0894,3.9374,1.96727,6.02459,2.66604,.54178,.18138,1.08195-.39355,.92259-.92259-.61617-2.04549-1.08959-4.13225-1.35498-6.25352-.11718-.93658-.19674-1.87805-.24301-2.82075-.04186-.85295-.27528-2.18583-.02924-2.9952,.19085-.62782,1.39679-1.54385,1.88186-2.05348,.68661-.72138,1.37323-1.44276,2.05984-2.16415,1.48766-1.56299,2.97533-3.12599,4.46299-4.68898,.484-.50851,.09672-1.20769-.53033-1.28033l-13.02955-1.50949c-.30773-.03565-.65931,.25707-.72321,.55062l-.06286,.28881h1.44642c-1.51305-3.97407-3.52676-7.70187-6.05358-11.12365-.40319-.54599-1.11981-.43964-1.37081,.17916l-2.41581,5.95577-1.11499,2.74882c-.2635,.64961-.57103,2.08725-1.06229,2.55828-.47727,.45761-1.75069,.68407-2.36165,.87654-.86366,.27207-1.73966,.50712-2.6239,.7023-2.00493,.44256-4.03552,.66337-6.08692,.70673-.79445,.01679-.95352,.972-.37854,1.3976,2.92092,2.16205,5.42524,4.85952,7.3303,7.95654,.11376,.18494,.43731,.61221,.4102,.47542,.07598,.38348-.17263,1.10699-.23275,1.49975-.14719,.96168-.29439,1.92336-.44158,2.88505-.31892,2.08364-.63784,4.16729-.95677,6.25093-.09212,.60184,.32347,1.01101,.92259,.92259,4.47328-.66021,7.48272-4.34433,11.50776-6.03479,.87667-.36819,.49153-1.82033-.39876-1.44642Z" fill="#d6c51b" origin="undraw"/></svg>